<svg width="16" height="16" viewBox="0 0 16 16" fill="none" xmlns="http://www.w3.org/2000/svg">
<g clip-path="url(#clip0_260_8738)">
<path d="M14.8571 4.34287C14.1714 3.08572 13.1429 2.17144 12 1.48572C10.7429 0.80001 9.37143 0.457153 8 0.457153C6.51429 0.457153 5.25714 0.80001 4 1.48572C2.74286 2.17144 1.82857 3.20001 1.02857 4.34287C0.342857 5.60001 0 6.97144 0 8.34287C0 10.0572 0.457143 11.6572 1.48571 13.0286C2.51429 14.4 3.77143 15.4286 5.37143 15.8857C5.6 15.8857 5.71429 15.8857 5.82857 15.7714C5.94286 15.6572 5.94286 15.5429 5.94286 15.4286C5.94286 15.4286 5.94286 15.2 5.94286 14.8572C5.94286 14.5143 5.94286 14.1714 5.94286 13.9429H5.71429C5.6 13.9429 5.37143 13.9429 5.14286 13.9429C4.91429 13.9429 4.68572 13.9429 4.45714 13.8286C4.22857 13.8286 4 13.7143 3.77143 13.4857C3.54286 13.3714 3.42857 13.1429 3.31429 12.8L3.2 12.5714C3.08571 12.4572 2.97143 12.2286 2.85714 12C2.74286 11.7714 2.51429 11.6572 2.4 11.6572H2.28571L2.17143 11.5429L2.05714 11.4286V11.3143C2.05714 11.3143 2.17143 11.3143 2.4 11.3143H2.62857C2.74286 11.3143 2.97143 11.4286 3.08571 11.5429C3.31429 11.6572 3.42857 11.8857 3.54286 12.1143C3.65714 12.3429 3.88571 12.5714 4.11429 12.8C4.34286 12.9143 4.57143 13.0286 4.8 13.0286C5.02857 13.0286 5.25714 13.0286 5.37143 13.0286C5.48571 13.0286 5.71429 12.9143 5.82857 12.9143C5.94286 12.4572 6.05714 12.1143 6.28572 11.8857C5.94286 11.8857 5.48571 11.7714 5.25714 11.6572C4.91429 11.5429 4.57143 11.4286 4.22857 11.2C4.11429 11.0857 3.88572 10.8572 3.65714 10.6286C3.42857 10.2857 3.2 9.94287 3.08571 9.48572C2.97143 9.02858 2.85714 8.57144 2.85714 8.00001C2.85714 7.20001 3.08571 6.40001 3.65714 5.82858C3.42857 5.25715 3.42857 4.45715 3.77143 3.77144C4 3.65715 4.22857 3.77144 4.68571 3.88572C5.02857 4.00001 5.37143 4.22858 5.6 4.22858C5.71429 4.34287 5.82857 4.45715 5.94286 4.57144C6.62857 4.34287 7.31429 4.22858 8 4.22858C8.68572 4.22858 9.25714 4.34287 9.94286 4.57144L10.2857 4.34287C10.5143 4.22858 10.8571 4.00001 11.2 3.88572C11.5429 3.77144 11.8857 3.65715 12 3.77144C12.3429 4.57144 12.3429 5.25715 12.1143 5.82858C12.6857 6.40001 12.9143 7.08572 12.9143 8.00001C12.9143 8.57144 12.8 9.14287 12.6857 9.60001C12.5714 10.0572 12.3429 10.4 12.1143 10.7429C11.8857 10.9714 11.6571 11.2 11.3143 11.4286C10.9714 11.6572 10.6286 11.7714 10.2857 11.8857C9.94286 12 9.6 12 9.25714 12.1143C9.6 12.4572 9.82857 12.9143 9.82857 13.6V15.7714C9.82857 15.8857 9.82857 16 9.94286 16.1143C10.1714 16 10.2857 16 10.5143 15.8857C12.1143 15.3143 13.3714 14.4 14.4 13.0286C15.4286 11.6572 15.8857 10.0572 15.8857 8.34287C15.8857 6.97144 15.5429 5.60001 14.8571 4.34287Z" fill="#0E1332"/>
</g>
<defs>
<clipPath id="clip0_260_8738">
<rect width="16" height="16" fill="white"/>
</clipPath>
</defs>
</svg>
