<svg width="16" height="16" viewBox="0 0 16 16" fill="none" xmlns="http://www.w3.org/2000/svg">
<path d="M8.02028 15.8625C8.00239 15.8484 7.98938 15.8375 7.97638 15.8266C7.68698 15.5453 7.39757 15.2656 7.10817 14.9844C6.68058 14.5688 6.25135 14.1531 5.82375 13.7359C5.50834 13.4281 5.19292 13.1203 4.87751 12.8125C4.43202 12.3781 3.98492 11.9453 3.53943 11.5109C3.23052 11.2109 2.92323 10.9094 2.61432 10.6078C2.16559 10.1703 1.71523 9.73438 1.26649 9.29688C0.983596 9.02031 0.700698 8.74375 0.4178 8.46875C0.30399 8.35781 0.234079 8.22188 0.221072 8.06719C0.206439 7.89063 0.26497 7.72969 0.391786 7.6C0.564126 7.42344 0.741344 7.25156 0.918562 7.07969C1.20634 6.8 1.49411 6.52344 1.78189 6.24375C2.07617 5.95781 2.37045 5.67188 2.66472 5.38438C3.3427 4.72344 4.01906 4.06094 4.69704 3.4C5.48883 2.62813 6.28062 1.85625 7.0724 1.08594C7.36343 0.803127 7.65446 0.520314 7.94386 0.237502C8.0154 0.167189 8.02028 0.167189 8.09019 0.235939C8.55518 0.687502 9.01855 1.1375 9.48191 1.58906C9.78757 1.88594 10.09 2.18438 10.3956 2.48125C10.8558 2.92969 11.3175 3.37656 11.7776 3.825C12.0898 4.12969 12.4003 4.43438 12.7125 4.7375C13.1189 5.13281 13.5254 5.52813 13.9302 5.92344C14.2896 6.27344 14.6472 6.62344 15.0066 6.97344C15.2114 7.17344 15.4146 7.37656 15.6228 7.575C15.8731 7.81406 15.8748 8.21094 15.6455 8.43906C15.4293 8.65469 15.2098 8.86563 14.9919 9.07813C14.4782 9.57813 13.9611 10.0781 13.449 10.5797C12.9287 11.0891 12.4133 11.6016 11.8914 12.1094C11.4541 12.5375 11.0118 12.9609 10.5729 13.3875C9.81847 14.1219 9.06407 14.8563 8.30968 15.5906C8.23001 15.6672 8.14872 15.7438 8.06905 15.8203C8.0593 15.8344 8.03979 15.8469 8.02028 15.8625ZM8.02678 5.70938C8.00077 5.73125 7.97638 5.74844 7.95524 5.76875C7.68047 6.03594 7.40733 6.30313 7.13256 6.57031C6.70171 6.99063 6.27086 7.40938 5.84001 7.82969C5.79123 7.87656 5.74246 7.92344 5.69368 7.97188C5.64979 8.01563 5.64979 8.02656 5.69043 8.07031C5.69694 8.07813 5.70506 8.08438 5.71157 8.09063C6.05462 8.425 6.39605 8.75938 6.73911 9.09219C7.14557 9.4875 7.5504 9.88281 7.95687 10.2781C8.01702 10.3359 8.0219 10.3359 8.08043 10.2797C8.08531 10.275 8.09181 10.2688 8.09669 10.2641C8.41211 9.95313 8.72752 9.64219 9.04619 9.33281C9.40062 8.98906 9.75506 8.64688 10.1111 8.30313C10.194 8.22188 10.2786 8.14219 10.3599 8.06094C10.3989 8.02188 10.3973 8.00781 10.3582 7.96875C10.3209 7.93125 10.2835 7.89375 10.2461 7.85781C9.74693 7.37188 9.24617 6.88438 8.74703 6.39844C8.52754 6.18438 8.30643 5.97031 8.08531 5.75625C8.06743 5.74063 8.04954 5.72813 8.02678 5.70938Z" fill="#0E1332"/>
</svg>
