<svg width="16" height="16" viewBox="0 0 16 16" fill="none" xmlns="http://www.w3.org/2000/svg">
<path fill-rule="evenodd" clip-rule="evenodd" d="M1.96923 0.457138C0.861539 0.457138 0 1.25714 0 2.28571V13.4857C0 14.5143 0.861539 15.3143 1.96923 15.3143H14.0308C15.1385 15.3143 16 14.5143 16 13.4857V2.28571C16 1.25714 15.1385 0.457138 14.0308 0.457138H1.96923ZM9.96923 2.28571C9.47692 2.28571 8.98462 2.74285 8.98462 3.31428V7.99999C8.98462 8.45714 9.35385 8.91428 9.96923 8.91428H12.9231C13.4154 8.91428 13.9077 8.57142 13.9077 7.99999V3.19999C13.9077 2.74285 13.5385 2.28571 12.9231 2.28571H9.96923ZM3.07692 2.28571C2.46154 2.28571 2.09231 2.74285 2.09231 3.19999V11.6571C2.09231 12.2286 2.46154 12.5714 3.07692 12.5714H6.03077C6.52308 12.5714 7.01538 12.2286 7.01538 11.6571V3.19999C7.01538 2.74285 6.64615 2.28571 6.03077 2.28571H3.07692Z" fill="#0E1332"/>
</svg>
