<svg width="29" height="28" viewBox="0 0 29 28" fill="none" xmlns="http://www.w3.org/2000/svg">
<path d="M26.4766 11.5976H2.47336C1.10736 11.5976 0 12.6677 0 13.9877C0 15.3077 1.10736 16.3778 2.47336 16.3778H26.4766C27.8426 16.3778 28.95 15.3077 28.95 13.9877C28.95 12.6677 27.8426 11.5976 26.4766 11.5976Z" fill="#38E1FA"/>
<path d="M12.0017 2.39027V25.5856C12.0017 26.9056 13.1091 27.9757 14.4751 27.9757C15.8411 27.9757 16.9484 26.9056 16.9484 25.5856V2.39027C16.9484 1.07024 15.8411 0.000152588 14.4751 0.000152588C13.1091 0.000152588 12.0017 1.07024 12.0017 2.39027Z" fill="#4BC6CF"/>
<path d="M21.2123 4.09669L4.23939 20.4982C3.27348 21.4316 3.27348 22.945 4.23939 23.8784C5.20529 24.8118 6.77135 24.8118 7.73726 23.8784L24.7102 7.47682C25.6761 6.54342 25.6761 5.03009 24.7102 4.09668C23.7443 3.16329 22.1782 3.16329 21.2123 4.09669Z" fill="#5D75F6"/>
<path d="M4.23939 7.47724L21.2123 23.8788C22.1782 24.8122 23.7443 24.8122 24.7102 23.8788C25.6761 22.9454 25.6761 21.4321 24.7102 20.4987L7.73727 4.09711C6.77136 3.16372 5.2053 3.16371 4.23938 4.09711C3.27348 5.03051 3.27348 6.54385 4.23939 7.47724Z" fill="#91E03B"/>
<path d="M12.0016 14.9775L10.9772 13.9877L8.50391 16.3778H12.0016V14.9775Z" fill="#596CF5"/>
<path d="M16.9474 12.9978L17.9725 13.9877L20.4459 11.5976H16.9474V12.9978Z" fill="#596CF5"/>
<path d="M15.4992 11.5977H16.9475V8.2178L14.475 10.6079L15.4992 11.5977Z" fill="#36A5C9"/>
<path d="M13.4508 16.3778H12.0017V19.7577L14.4751 17.3676L13.4508 16.3778Z" fill="#36A5C9"/>
<path d="M16.9477 11.5976H15.4994L16.9477 12.9978V11.5976Z" fill="#36A5C9"/>
<path d="M12.0017 16.3779H13.4508L12.0017 14.9776V16.3779Z" fill="#36A5C9"/>
<path d="M12.0016 12.9978V11.5976H8.50391L10.9772 13.9877L12.0016 12.9978Z" fill="#41DBA0"/>
<path d="M16.9474 14.9775V16.3778H20.4459L17.9725 13.9877L16.9474 14.9775Z" fill="#41DBA0"/>
<path d="M13.4508 11.5977L14.4751 10.6079L12.0017 8.2178V11.5977H13.4508Z" fill="#42B8A9"/>
<path d="M15.4992 16.3778L14.475 17.3676L16.9475 19.7577V16.3778H15.4992Z" fill="#42B8A9"/>
<path d="M12.0017 11.5976V12.9978L13.4508 11.5976H12.0017Z" fill="#2CB9C6"/>
<path d="M16.9477 16.3779V14.9776L15.4994 16.3779H16.9477Z" fill="#2CB9C6"/>
<path d="M10.9774 13.9878L12.0017 14.9777V12.998L10.9774 13.9878Z" fill="#4968F1"/>
<path d="M16.9474 14.9777L17.9725 13.9878L16.9474 12.998V14.9777Z" fill="#4968F1"/>
<path d="M14.475 17.3676L15.4994 16.3778H13.4507L14.475 17.3676Z" fill="#36A5C9"/>
<path d="M14.475 10.6079L13.4507 11.5977H15.4994L14.475 10.6079Z" fill="#36A5C9"/>
<path d="M15.4993 11.5976H13.4508L12.0017 12.9978V14.9775L13.4508 16.3778H15.4993L16.9477 14.9775V12.9978L15.4993 11.5976Z" fill="#36A5C9"/>
</svg>
